<svg width="90" height="94" viewBox="0 0 90 94" fill="none" xmlns="http://www.w3.org/2000/svg">
<path d="M21 40V44C21 46.7614 23.2386 49 26 49H38" stroke="white" stroke-width="4"/>
<path fill-rule="evenodd" clip-rule="evenodd" d="M54.211 54.6686L56.0645 52.5909L57.4417 55.0107L61.7369 62.5576L58.2605 64.5361L55.3425 59.4091L47.7178 67.9563L47.7417 67.9813L47.6845 68.0431L54.3215 75.6889L51.3008 78.3111L44.9506 70.9956L38.1329 78.3588L35.1978 75.6412L42.2557 68.0187L33.9333 59.2724L30.7083 64.5848L27.2891 62.509L31.8706 54.9621L33.2272 52.7276L35.0291 54.6213L44.9512 65.0488L54.211 54.6686Z" fill="white" fill-opacity="0.5"/>
<path d="M11.6565 72.7907C6.01374 78 3.42748 87.5504 3 92H45L29.6107 64C25.8702 64.5426 17.2992 67.5814 11.6565 72.7907Z" stroke="white" stroke-width="4"/>
<path d="M78.3435 72.7907C83.9863 78 86.5725 87.5504 87 92H45L60.3893 64C64.1298 64.5426 72.7008 67.5814 78.3435 72.7907Z" stroke="white" stroke-width="4"/>
<path d="M62.1078 25.8906L61.3246 43.3897C60.9338 52.1217 53.7407 59 45 59C36.2593 59 29.0662 52.1217 28.6754 43.3897L27.8922 25.8906C27.4559 16.142 35.2417 8 45 8C54.7583 8 62.5441 16.142 62.1078 25.8906Z" stroke="white" stroke-width="4"/>
<path d="M27.5 25C27.5 25 31.7884 19.5199 36.8448 18.3243C44.4712 16.5209 44.181 22.6617 55.3448 26.3317C58.078 27.2302 62 27 62 27" stroke="white" stroke-opacity="0.5" stroke-width="4"/>
<path fill-rule="evenodd" clip-rule="evenodd" d="M72.9224 34.1516C73.02 31.7329 72.2963 29.4714 70.9996 27.6363C70.8194 12.4893 59.3939 0 45.0018 0C30.9126 0 19.6665 11.9691 19.0302 26.6835C17.2636 28.658 16.2333 31.2952 16.3486 34.1516L16.3702 34.688C16.6054 40.5167 21.5211 45.0512 27.3499 44.816L27.1886 40.8193C23.5672 40.9654 20.5131 38.1481 20.367 34.5268L20.3453 33.9903C20.1992 30.369 23.0165 27.3148 26.6379 27.1687L26.4766 23.1719C25.3769 23.2163 24.3233 23.4273 23.339 23.7796C25.1763 12.4349 34.2906 4 45.0018 4C55.8121 4 64.9959 12.5918 66.7137 24.0954C65.5135 23.5534 64.1911 23.2283 62.7944 23.1719L62.6332 27.1687C66.2546 27.3148 69.0718 30.369 68.9257 33.9903L68.9041 34.5268C68.7579 38.1481 65.7038 40.9654 62.0824 40.8193L61.9212 44.816C67.7499 45.0512 72.6656 40.5167 72.9008 34.688L72.9224 34.1516Z" fill="white"/>
<rect x="38.0016" y="45.8917" width="10.6774" height="6.24404" rx="3.12202" transform="rotate(0.400125 38.0016 45.8917)" stroke="white" stroke-width="4"/>
<path d="M67 75C69.0513 75.6875 73.9231 78.85 77 86" stroke="white" stroke-opacity="0.5" stroke-width="4"/>
</svg>
