<svg width="132" height="81" viewBox="0 0 132 81" fill="none" xmlns="http://www.w3.org/2000/svg">
<rect x="2" y="32.7273" width="85.6552" height="46.2727" stroke="white" stroke-width="4"/>
<path d="M93.2403 59.4545H119.999C125.522 59.4545 129.999 54.9774 129.999 49.4546V12C129.999 6.47715 125.522 2 119.999 2H50.3438C44.8209 2 40.3438 6.47716 40.3438 12V27.1364" stroke="white" stroke-width="4"/>
<path d="M59.8619 55.8636C59.8619 64.1818 53.1283 70.9205 44.8275 70.9205C36.5266 70.9205 29.793 64.1818 29.793 55.8636C29.793 47.5455 36.5266 40.8068 44.8275 40.8068C53.1283 40.8068 59.8619 47.5455 59.8619 55.8636Z" stroke="white" stroke-opacity="0.5" stroke-width="4"/>
<path d="M42.3438 48.8864H46.6126C48.4828 48.8864 49.9989 50.4025 49.9989 52.2727C49.9989 54.143 48.4828 55.6591 46.6126 55.6591H42.3438V48.8864Z" stroke="white" stroke-width="4"/>
<rect x="36.7578" y="54.0682" width="7.17241" height="3.59091" fill="white"/>
<rect x="36.7578" y="59.4545" width="15.2414" height="3.59091" fill="white"/>
<rect x="40.3438" y="46.8864" width="3.58621" height="18.8523" fill="white"/>
<path d="M69.0352 39.7045H80.6903V54.0682" stroke="white" stroke-opacity="0.5" stroke-width="4"/>
<path d="M20.6211 72.0227H8.96592V57.6591" stroke="white" stroke-opacity="0.5" stroke-width="4"/>
<path d="M8.96484 54.0682V46.8864" stroke="white" stroke-opacity="0.5" stroke-width="4"/>
<path fill-rule="evenodd" clip-rule="evenodd" d="M110.274 50.441C108.945 51.583 107.218 52.2727 105.33 52.2727C101.128 52.2727 97.7227 48.8563 97.7227 44.642C97.7227 40.4277 101.128 37.0114 105.33 37.0114C107.218 37.0114 108.945 37.7011 110.274 38.843C111.604 37.7011 113.331 37.0114 115.219 37.0114C119.42 37.0114 122.826 40.4277 122.826 44.642C122.826 48.8563 119.42 52.2727 115.219 52.2727C113.331 52.2727 111.604 51.583 110.274 50.441Z" fill="white"/>
<rect x="42.1367" y="11.875" width="86.069" height="4.48864" fill="white" fill-opacity="0.5"/>
<rect x="42.1367" y="19.9546" width="86.069" height="4.48864" fill="white" fill-opacity="0.5"/>
</svg>
